<svg xmlns="http://www.w3.org/2000/svg" font-family="sans-serif" height="100" stroke="rgb(0,0,0)" stroke-linecap="round" stroke-width="2" viewBox="0 0 214.641 194.641" width="100" x="0" y="0">
<line stroke="rgb(0,0,0)" stroke-width="2.0" x1="80.0" x2="100.0" y1="114.6" y2="80.0" />
<line stroke="rgb(0,0,0)" stroke-width="2.0" x1="100.0" x2="140.0" y1="80.0" y2="80.0" />
<line stroke="rgb(0,0,0)" stroke-width="2.0" x1="80.0" x2="80.0" y1="114.6" y2="141.6" />
<line stroke="rgb(0,0,0)" stroke-width="2.0" x1="80.0" x2="103.4" y1="114.6" y2="128.1" />
<line stroke="rgb(0,0,0)" stroke-width="2.0" x1="80.0" x2="53.0" y1="114.6" y2="114.6" />
<line stroke="rgb(0,0,0)" stroke-width="2.0" x1="100.0" x2="100.0" y1="80.0" y2="53.0" />
<line stroke="rgb(0,0,0)" stroke-width="2.0" x1="100.0" x2="76.6" y1="80.0" y2="66.5" />
<line stroke="rgb(0,0,0)" stroke-width="2.0" x1="140.0" x2="163.4" y1="80.0" y2="66.5" />
<line stroke="rgb(0,0,0)" stroke-width="2.0" x1="140.0" x2="140.0" y1="80.0" y2="53.0" />
<line stroke="rgb(0,0,0)" stroke-width="2.0" x1="140.0" x2="153.5" y1="80.0" y2="103.4" />
<text fill="rgb(191,191,191)" font-size="16" stroke="rgb(191,191,191)" stroke-width="1" x="74.000000" y="162.641016">H</text>
<text fill="rgb(191,191,191)" font-size="16" stroke="rgb(191,191,191)" stroke-width="1" x="108.641016" y="142.641016">H</text>
<text fill="rgb(191,191,191)" font-size="16" stroke="rgb(191,191,191)" stroke-width="1" x="34.000000" y="122.641016">H</text>
<text fill="rgb(191,191,191)" font-size="16" stroke="rgb(191,191,191)" stroke-width="1" x="94.000000" y="48.000000">H</text>
<text fill="rgb(191,191,191)" font-size="16" stroke="rgb(191,191,191)" stroke-width="1" x="59.358984" y="68.000000">H</text>
<text fill="rgb(191,191,191)" font-size="16" stroke="rgb(191,191,191)" stroke-width="1" x="168.641016" y="68.000000">H</text>
<text fill="rgb(191,191,191)" font-size="16" stroke="rgb(191,191,191)" stroke-width="1" x="134.000000" y="48.000000">H</text>
<text fill="rgb(191,191,191)" font-size="16" stroke="rgb(191,191,191)" stroke-width="1" x="154.000000" y="122.641016">H</text>
</svg>
