<?xml version="1.0" encoding="UTF-8" standalone="no"?>
<!DOCTYPE svg PUBLIC "-//W3C//DTD SVG 1.1//EN"
 "http://www.w3.org/Graphics/SVG/1.1/DTD/svg11.dtd">
<!-- Generated by graphviz version 2.40.1 (20161225.0304)
 -->
<!-- Title: %3 Pages: 1 -->
<svg width="557pt" height="226pt"
 viewBox="0.00 0.00 556.61 226.00" xmlns="http://www.w3.org/2000/svg" xmlns:xlink="http://www.w3.org/1999/xlink">
<g id="graph0" class="graph" transform="scale(1 1) rotate(0) translate(4 222)">
<title>%3</title>
<polygon fill="#ffffff" stroke="transparent" points="-4,4 -4,-222 552.6062,-222 552.6062,4 -4,4"/>
<g id="clust1" class="cluster">
<title>cluster99</title>
<path fill="none" stroke="#000000" d="M167.557,-8C167.557,-8 379.557,-8 379.557,-8 385.557,-8 391.557,-14 391.557,-20 391.557,-20 391.557,-142 391.557,-142 391.557,-148 385.557,-154 379.557,-154 379.557,-154 167.557,-154 167.557,-154 161.557,-154 155.557,-148 155.557,-142 155.557,-142 155.557,-20 155.557,-20 155.557,-14 161.557,-8 167.557,-8"/>
<text text-anchor="middle" x="376.557" y="-14.8" font-family="Times,serif" font-size="14.00" fill="#000000">99</text>
</g>
<!-- s_a -->
<g id="node1" class="node">
<title>s_a</title>
<ellipse fill="none" stroke="#000000" cx="61.557" cy="-200" rx="61.614" ry="18"/>
<text text-anchor="middle" x="61.557" y="-195.8" font-family="Times,serif" font-size="14.00" fill="#000000">s_a ~ Uniform</text>
</g>
<!-- a -->
<g id="node7" class="node">
<title>a</title>
<ellipse fill="none" stroke="#000000" cx="213.557" cy="-128" rx="50.0056" ry="18"/>
<text text-anchor="middle" x="213.557" y="-123.8" font-family="Times,serif" font-size="14.00" fill="#000000">a ~ Normal</text>
</g>
<!-- s_a&#45;&gt;a -->
<g id="edge1" class="edge">
<title>s_a&#45;&gt;a</title>
<path fill="none" stroke="#000000" d="M94.1648,-184.5542C117.5245,-173.4891 149.1091,-158.5279 173.9249,-146.7731"/>
<polygon fill="#000000" stroke="#000000" points="175.534,-149.8838 183.0731,-142.4397 172.5373,-143.5576 175.534,-149.8838"/>
</g>
<!-- m_a -->
<g id="node2" class="node">
<title>m_a</title>
<ellipse fill="none" stroke="#000000" cx="202.557" cy="-200" rx="61.6053" ry="18"/>
<text text-anchor="middle" x="202.557" y="-195.8" font-family="Times,serif" font-size="14.00" fill="#000000">m_a ~ Normal</text>
</g>
<!-- m_a&#45;&gt;a -->
<g id="edge2" class="edge">
<title>m_a&#45;&gt;a</title>
<path fill="none" stroke="#000000" d="M205.3327,-181.8314C206.5092,-174.131 207.9081,-164.9743 209.2155,-156.4166"/>
<polygon fill="#000000" stroke="#000000" points="212.6933,-156.8272 210.7438,-146.4133 205.7736,-155.7699 212.6933,-156.8272"/>
</g>
<!-- s_b -->
<g id="node3" class="node">
<title>s_b</title>
<ellipse fill="none" stroke="#000000" cx="344.557" cy="-200" rx="62.1071" ry="18"/>
<text text-anchor="middle" x="344.557" y="-195.8" font-family="Times,serif" font-size="14.00" fill="#000000">s_b ~ Uniform</text>
</g>
<!-- b -->
<g id="node6" class="node">
<title>b</title>
<ellipse fill="none" stroke="#000000" cx="332.557" cy="-128" rx="50.9988" ry="18"/>
<text text-anchor="middle" x="332.557" y="-123.8" font-family="Times,serif" font-size="14.00" fill="#000000">b ~ Normal</text>
</g>
<!-- s_b&#45;&gt;b -->
<g id="edge3" class="edge">
<title>s_b&#45;&gt;b</title>
<path fill="none" stroke="#000000" d="M341.5289,-181.8314C340.2455,-174.131 338.7194,-164.9743 337.2931,-156.4166"/>
<polygon fill="#000000" stroke="#000000" points="340.7223,-155.7018 335.6258,-146.4133 333.8175,-156.8526 340.7223,-155.7018"/>
</g>
<!-- m_b -->
<g id="node4" class="node">
<title>m_b</title>
<ellipse fill="none" stroke="#000000" cx="486.557" cy="-200" rx="62.0985" ry="18"/>
<text text-anchor="middle" x="486.557" y="-195.8" font-family="Times,serif" font-size="14.00" fill="#000000">m_b ~ Normal</text>
</g>
<!-- m_b&#45;&gt;b -->
<g id="edge4" class="edge">
<title>m_b&#45;&gt;b</title>
<path fill="none" stroke="#000000" d="M453.5201,-184.5542C429.8531,-173.4891 397.8528,-158.5279 372.7105,-146.7731"/>
<polygon fill="#000000" stroke="#000000" points="373.9832,-143.5045 363.442,-142.4397 371.0184,-149.8457 373.9832,-143.5045"/>
</g>
<!-- s_y -->
<g id="node5" class="node">
<title>s_y</title>
<ellipse fill="none" stroke="#000000" cx="463.557" cy="-128" rx="62.1071" ry="18"/>
<text text-anchor="middle" x="463.557" y="-123.8" font-family="Times,serif" font-size="14.00" fill="#000000">s_y ~ Uniform</text>
</g>
<!-- y -->
<g id="node8" class="node">
<title>y</title>
<ellipse fill="#d3d3d3" stroke="#000000" cx="332.557" cy="-56" rx="50.9988" ry="18"/>
<text text-anchor="middle" x="332.557" y="-51.8" font-family="Times,serif" font-size="14.00" fill="#000000">y ~ Normal</text>
</g>
<!-- s_y&#45;&gt;y -->
<g id="edge6" class="edge">
<title>s_y&#45;&gt;y</title>
<path fill="none" stroke="#000000" d="M434.4838,-112.0209C415.1793,-101.4108 389.6851,-87.3986 369.0232,-76.0425"/>
<polygon fill="#000000" stroke="#000000" points="370.653,-72.9445 360.2036,-71.1951 367.2814,-79.079 370.653,-72.9445"/>
</g>
<!-- b&#45;&gt;y -->
<g id="edge5" class="edge">
<title>b&#45;&gt;y</title>
<path fill="none" stroke="#000000" d="M332.557,-109.8314C332.557,-102.131 332.557,-92.9743 332.557,-84.4166"/>
<polygon fill="#000000" stroke="#000000" points="336.0571,-84.4132 332.557,-74.4133 329.0571,-84.4133 336.0571,-84.4132"/>
</g>
<!-- a&#45;&gt;y -->
<g id="edge7" class="edge">
<title>a&#45;&gt;y</title>
<path fill="none" stroke="#000000" d="M239.3782,-112.3771C256.6095,-101.9514 279.4599,-88.1259 298.2196,-76.7756"/>
<polygon fill="#000000" stroke="#000000" points="300.0421,-79.7637 306.7861,-71.5924 296.4184,-73.7746 300.0421,-79.7637"/>
</g>
</g>
</svg>
