<?xml version="1.0" encoding="UTF-8" standalone="no"?>
<!DOCTYPE svg PUBLIC "-//W3C//DTD SVG 1.1//EN"
 "http://www.w3.org/Graphics/SVG/1.1/DTD/svg11.dtd">
<!-- Generated by graphviz version 2.40.1 (20161225.0304)
 -->
<!-- Title: %3 Pages: 1 -->
<svg width="395pt" height="154pt"
 viewBox="0.00 0.00 395.00 154.00" xmlns="http://www.w3.org/2000/svg" xmlns:xlink="http://www.w3.org/1999/xlink">
<g id="graph0" class="graph" transform="scale(1 1) rotate(0) translate(4 150)">
<title>%3</title>
<polygon fill="#ffffff" stroke="transparent" points="-4,4 -4,-150 391.0009,-150 391.0009,4 -4,4"/>
<g id="clust1" class="cluster">
<title>cluster99 x 1</title>
<path fill="none" stroke="#000000" d="M146.7488,-8C146.7488,-8 240.7488,-8 240.7488,-8 246.7488,-8 252.7488,-14 252.7488,-20 252.7488,-20 252.7488,-70 252.7488,-70 252.7488,-76 246.7488,-82 240.7488,-82 240.7488,-82 146.7488,-82 146.7488,-82 140.7488,-82 134.7488,-76 134.7488,-70 134.7488,-70 134.7488,-20 134.7488,-20 134.7488,-14 140.7488,-8 146.7488,-8"/>
<text text-anchor="middle" x="227.2488" y="-14.8" font-family="Times,serif" font-size="14.00" fill="#000000">99 x 1</text>
</g>
<!-- b -->
<g id="node1" class="node">
<title>b</title>
<ellipse fill="none" stroke="#000000" cx="50.7488" cy="-128" rx="50.9988" ry="18"/>
<text text-anchor="middle" x="50.7488" y="-123.8" font-family="Times,serif" font-size="14.00" fill="#000000">b ~ Normal</text>
</g>
<!-- y -->
<g id="node4" class="node">
<title>y</title>
<ellipse fill="#d3d3d3" stroke="#000000" cx="193.7488" cy="-56" rx="50.9988" ry="18"/>
<text text-anchor="middle" x="193.7488" y="-51.8" font-family="Times,serif" font-size="14.00" fill="#000000">y ~ Normal</text>
</g>
<!-- b&#45;&gt;y -->
<g id="edge1" class="edge">
<title>b&#45;&gt;y</title>
<path fill="none" stroke="#000000" d="M80.032,-113.256C101.8172,-102.2872 131.7487,-87.2168 155.4356,-75.2905"/>
<polygon fill="#000000" stroke="#000000" points="157.1469,-78.3476 164.5047,-70.7243 153.9989,-72.0953 157.1469,-78.3476"/>
</g>
<!-- s_y -->
<g id="node2" class="node">
<title>s_y</title>
<ellipse fill="none" stroke="#000000" cx="193.7488" cy="-128" rx="74.1516" ry="18"/>
<text text-anchor="middle" x="193.7488" y="-123.8" font-family="Times,serif" font-size="14.00" fill="#000000">s_y ~ HalfCauchy</text>
</g>
<!-- s_y&#45;&gt;y -->
<g id="edge2" class="edge">
<title>s_y&#45;&gt;y</title>
<path fill="none" stroke="#000000" d="M193.7488,-109.8314C193.7488,-102.131 193.7488,-92.9743 193.7488,-84.4166"/>
<polygon fill="#000000" stroke="#000000" points="197.2489,-84.4132 193.7488,-74.4133 190.2489,-84.4133 197.2489,-84.4132"/>
</g>
<!-- a -->
<g id="node3" class="node">
<title>a</title>
<ellipse fill="none" stroke="#000000" cx="336.7488" cy="-128" rx="50.0056" ry="18"/>
<text text-anchor="middle" x="336.7488" y="-123.8" font-family="Times,serif" font-size="14.00" fill="#000000">a ~ Normal</text>
</g>
<!-- a&#45;&gt;y -->
<g id="edge3" class="edge">
<title>a&#45;&gt;y</title>
<path fill="none" stroke="#000000" d="M307.4655,-113.256C285.6803,-102.2872 255.7488,-87.2168 232.0619,-75.2905"/>
<polygon fill="#000000" stroke="#000000" points="233.4986,-72.0953 222.9929,-70.7243 230.3506,-78.3476 233.4986,-72.0953"/>
</g>
</g>
</svg>
